<svg xmlns="http://www.w3.org/2000/svg" width="960" height="1093" viewBox="0 0 960 1093">
<g>
<path d="M 0.00 0.00 L 960.00 0.00 L 960.00 1093.00 L 0.00 1093.00 ZM 675.63 551.50 C683.11,558.75 684.61,558.94 681.02,552.21 C677.94,546.43 675.99,544.69 669.00,541.48 L 662.50 538.50 L 633.50 537.89 C617.55,537.55 549.60,536.75 482.50,536.11 C364.61,534.98 360.23,534.87 352.50,532.88 C348.10,531.75 343.47,530.17 342.21,529.36 C339.97,527.93 325.60,514.53 313.41,502.51 C310.06,499.20 304.88,494.43 301.91,491.89 C298.93,489.36 292.75,484.07 288.16,480.14 C281.02,474.03 276.00,471.34 276.00,473.62 C276.00,475.55 332.78,534.05 337.00,536.47 C338.38,537.25 341.08,538.71 343.00,539.70 C344.92,540.69 346.86,542.06 347.30,542.75 C347.74,543.44 349.43,544.00 351.05,544.00 C352.67,544.00 354.00,544.51 354.00,545.14 C354.00,546.27 412.97,546.08 598.25,544.36 C648.38,543.90 666.00,544.03 666.00,544.87 C666.00,545.49 666.89,546.00 667.98,546.00 C669.06,546.00 672.51,548.47 675.63,551.50 ZM 595.72 499.75 C597.56,501.54 599.55,503.00 600.14,503.00 C601.63,503.00 596.85,497.60 581.82,482.33 C570.25,470.58 564.52,466.11 560.10,465.37 C559.33,465.24 558.40,464.64 558.02,464.04 C557.53,463.25 518.11,463.02 417.42,463.22 C272.68,463.51 272.01,463.53 273.27,467.32 C273.65,468.46 275.54,468.76 296.00,470.93 C301.23,471.48 310.23,472.50 316.00,473.19 C323.57,474.09 339.05,474.31 371.50,473.97 C396.25,473.71 447.27,473.60 484.88,473.73 L 553.25 473.96 L 560.57 477.97 C565.32,480.58 568.12,481.61 568.56,480.90 C569.31,479.69 562.27,472.00 560.41,472.00 C559.76,472.00 558.16,471.09 556.86,469.98 L 554.50 467.97 L 557.50 468.63 C564.04,470.06 571.10,475.20 581.85,486.38 C584.96,489.62 588.60,493.22 589.94,494.38 C591.28,495.55 593.88,497.96 595.72,499.75 ZM 338.00 719.24 C338.00,721.75 342.91,719.06 349.69,712.82 C362.54,701.02 418.03,646.89 446.95,617.95 C450.55,614.35 455.54,609.76 458.02,607.76 C462.75,603.97 474.37,598.00 477.05,598.00 C477.90,598.00 479.07,597.53 479.64,596.96 C481.31,595.29 525.49,593.93 595.00,593.41 C636.71,593.10 661.09,592.54 664.00,591.83 C672.53,589.75 681.00,583.13 681.00,578.54 C681.00,575.97 678.49,576.80 674.39,580.71 C671.20,583.75 669.32,584.62 663.97,585.55 C659.30,586.36 631.54,586.54 566.26,586.20 L 475.08 585.72 L 469.66 588.46 C466.68,589.97 463.03,592.39 461.54,593.85 C459.08,596.26 411.75,644.00 374.49,681.64 C366.24,689.97 354.66,701.66 348.75,707.63 C342.84,713.60 338.00,718.82 338.00,719.24 ZM 370.50 734.39 C371.60,734.59 383.08,734.66 396.00,734.54 C424.33,734.27 430.28,733.16 440.00,726.33 C443.44,723.92 546.28,620.92 548.94,617.23 C549.85,615.97 558.22,609.60 560.60,608.36 C563.85,606.68 576.20,606.08 620.50,605.46 C642.50,605.16 661.85,604.67 663.50,604.37 C671.36,602.97 681.00,598.01 681.00,595.37 C681.00,593.38 679.13,593.66 671.92,596.74 L 665.50 599.48 L 614.50 599.99 C566.38,600.47 563.27,600.61 559.50,602.47 C555.57,604.40 498.00,661.13 498.00,663.07 C498.00,663.58 497.34,664.00 496.53,664.00 C495.71,664.00 494.37,665.32 493.54,666.92 C492.71,668.53 491.37,669.99 490.56,670.17 C489.75,670.35 487.37,672.97 485.26,676.00 C482.92,679.37 480.58,681.62 479.22,681.82 C478.00,682.00 477.00,682.77 477.00,683.53 C477.00,684.30 476.10,685.41 475.00,686.00 C473.90,686.59 473.00,687.64 473.00,688.33 C473.00,690.25 464.33,698.32 463.09,697.56 C462.46,697.16 462.00,697.64 462.00,698.69 C461.99,700.92 459.87,703.37 448.82,713.92 C444.05,718.48 439.55,722.02 438.83,721.78 C437.97,721.49 438.98,719.84 441.76,717.01 C444.09,714.63 446.00,712.29 446.00,711.81 C446.00,710.70 442.35,712.60 441.29,714.26 C440.23,715.92 435.34,719.21 430.79,721.33 C427.77,722.73 422.04,723.25 400.29,724.07 C370.92,725.17 353.98,726.35 344.00,727.96 C335.45,729.34 334.37,729.77 335.78,731.18 C336.42,731.82 343.58,732.66 352.70,733.15 C361.39,733.63 369.40,734.18 370.50,734.39 ZM 901.57 1055.36 L 904.25 1061.22 L 907.15 1055.17 C910.51,1048.18 917.04,1041.91 923.58,1039.42 C926.01,1038.49 928.00,1037.41 928.00,1037.02 C928.00,1036.64 926.09,1035.71 923.75,1034.96 C918.44,1033.25 907.83,1022.87 906.44,1018.02 C905.21,1013.76 903.44,1013.11 902.56,1016.61 C900.78,1023.73 891.68,1032.99 884.35,1035.15 C880.02,1036.43 878.52,1038.00 881.63,1038.00 C884.00,1038.00 893.06,1043.40 896.19,1046.68 C897.67,1048.23 900.09,1052.14 901.57,1055.36 ZM 678.00 536.81 C683.48,539.33 684.00,539.39 684.00,537.55 C684.00,535.98 678.04,531.00 676.16,531.00 C675.52,531.00 675.00,530.47 675.00,529.83 C675.00,529.19 674.72,528.95 674.37,529.29 C674.03,529.64 672.19,529.27 670.29,528.47 C668.05,527.54 662.42,526.93 654.41,526.76 C647.59,526.62 642.00,526.16 642.00,525.75 C642.00,525.34 639.51,525.00 636.46,525.00 C629.85,525.00 619.86,520.75 614.64,515.73 C612.79,513.95 610.22,511.60 608.92,510.50 C606.86,508.76 606.94,509.03 609.46,512.50 C611.06,514.70 613.57,517.62 615.04,519.00 C616.50,520.38 618.33,522.83 619.10,524.45 C619.87,526.07 622.08,528.32 624.00,529.45 C627.13,531.28 629.71,531.56 648.50,532.04 C660.58,532.35 670.35,533.04 671.50,533.66 C672.60,534.26 675.53,535.67 678.00,536.81 ZM 690.86 581.52 C692.69,583.35 695.94,578.73 697.04,572.72 C698.17,566.59 696.90,556.50 695.00,556.50 C693.94,556.50 693.28,558.11 692.75,562.00 C691.06,574.29 690.40,581.07 690.86,581.52 ZM 388.50 540.94 C391.24,541.51 387.13,541.78 375.50,541.81 C366.15,541.84 357.60,541.47 356.50,541.00 C353.89,539.88 383.10,539.82 388.50,540.94 ZM 580.00 493.50 C582.37,496.02 584.00,496.70 584.00,495.17 C584.00,493.82 579.06,489.60 578.33,490.33 C577.96,490.70 578.71,492.13 580.00,493.50 ZM 447.00 709.74 C447.00,710.43 447.42,711.00 447.94,711.00 C448.99,711.00 452.17,706.84 451.57,706.24 C450.86,705.53 447.00,708.48 447.00,709.74 ZM 593.07 505.59 C594.04,506.75 594.54,506.87 594.84,505.99 C595.06,505.32 594.64,504.40 593.90,503.94 C591.96,502.74 591.49,503.68 593.07,505.59 Z" fill="rgb(11,11,12)"/>
<path d="M 347.00 542.20 C347.00,542.64 348.91,542.98 351.25,542.96 C355.44,542.93 355.46,542.91 353.00,541.50 C351.62,540.71 349.76,540.05 348.86,540.04 C347.95,540.02 346.95,539.33 346.64,538.50 C345.96,536.73 346.58,536.69 354.50,538.00 C359.79,538.87 373.69,538.36 372.66,537.33 C372.45,537.11 367.82,536.55 362.39,536.07 C351.27,535.10 343.78,532.34 338.00,527.10 C334.32,523.76 331.00,521.56 331.00,522.46 C331.00,522.75 332.65,524.82 334.66,527.04 C337.41,530.08 338.03,531.37 337.17,532.23 C336.30,533.10 335.31,532.59 333.17,530.19 C330.24,526.91 329.00,526.26 329.00,528.00 C329.00,528.98 332.57,533.00 333.44,533.00 C333.68,533.00 335.37,534.36 337.19,536.03 C337.84,536.62 338.65,537.25 339.49,537.84 C338.52,537.32 337.62,536.82 337.00,536.47 C332.78,534.05 276.00,475.55 276.00,473.62 C276.00,471.34 281.02,474.03 288.16,480.14 C292.75,484.07 298.93,489.36 301.91,491.89 C304.88,494.43 310.06,499.20 313.41,502.51 C325.60,514.53 339.97,527.93 342.21,529.36 C343.47,530.17 348.10,531.75 352.50,532.88 C360.23,534.87 364.61,534.98 482.50,536.11 C549.60,536.75 617.55,537.55 633.50,537.89 L 662.50 538.50 L 664.99 539.64 L 612.00 538.93 C517.66,537.65 475.58,537.79 476.89,539.37 C477.52,540.13 480.84,541.09 484.27,541.51 C487.70,541.94 529.84,542.56 577.92,542.89 C645.26,543.36 664.71,543.75 665.71,544.70 C663.26,544.01 644.73,543.93 598.25,544.36 C412.97,546.08 354.00,546.27 354.00,545.14 C354.00,544.51 352.67,544.00 351.05,544.00 C349.43,544.00 347.74,543.44 347.30,542.75 C346.97,542.23 345.77,541.31 344.37,540.46 C345.86,541.08 347.00,541.81 347.00,542.20 ZM 370.50 734.39 C369.40,734.18 361.39,733.63 352.70,733.15 C343.58,732.66 336.42,731.82 335.78,731.18 C334.37,729.77 335.45,729.34 344.00,727.96 C353.98,726.35 370.92,725.17 400.29,724.07 C422.04,723.25 427.77,722.73 430.79,721.33 C435.34,719.21 440.23,715.92 441.29,714.26 C442.35,712.60 446.00,710.70 446.00,711.81 C446.00,712.29 444.09,714.63 441.76,717.01 C438.98,719.84 437.97,721.49 438.83,721.78 C439.55,722.02 444.05,718.48 448.82,713.92 C459.87,703.37 461.99,700.92 462.00,698.69 C462.00,697.64 462.46,697.16 463.09,697.56 C464.33,698.32 473.00,690.25 473.00,688.33 C473.00,687.64 473.90,686.59 475.00,686.00 C476.10,685.41 477.00,684.30 477.00,683.53 C477.00,682.77 478.00,682.00 479.22,681.82 C480.58,681.62 482.92,679.37 485.26,676.00 C487.37,672.97 489.75,670.35 490.56,670.17 C491.37,669.99 492.71,668.53 493.54,666.92 C494.37,665.32 495.71,664.00 496.53,664.00 C497.34,664.00 498.00,663.58 498.00,663.07 C498.00,661.13 555.57,604.40 559.50,602.47 C563.27,600.61 566.38,600.47 614.50,599.99 L 665.50 599.48 L 671.92 596.74 C679.13,593.66 681.00,593.38 681.00,595.37 C681.00,598.01 671.36,602.97 663.50,604.37 C661.85,604.67 642.50,605.16 620.50,605.46 C576.20,606.08 563.85,606.68 560.60,608.36 C558.22,609.60 549.85,615.97 548.94,617.23 C546.28,620.92 443.44,723.92 440.00,726.33 C430.28,733.16 424.33,734.27 396.00,734.54 C383.08,734.66 371.60,734.59 370.50,734.39 ZM 595.72 499.75 C593.88,497.96 591.28,495.55 589.94,494.38 C588.60,493.22 584.96,489.62 581.85,486.38 C571.10,475.20 564.04,470.06 557.50,468.63 L 554.50 467.97 L 556.86 469.98 C558.16,471.09 559.76,472.00 560.41,472.00 C562.27,472.00 569.31,479.69 568.56,480.90 C568.12,481.61 565.32,480.58 560.57,477.97 L 553.25 473.96 L 484.88 473.73 C447.27,473.60 396.25,473.71 371.50,473.97 C339.05,474.31 323.57,474.09 316.00,473.19 C310.23,472.50 301.23,471.48 296.00,470.93 C275.54,468.76 273.65,468.46 273.27,467.32 C272.21,464.11 272.52,463.61 360.20,463.35 C308.34,463.80 279.89,464.71 278.57,466.03 C276.59,468.01 280.31,468.97 290.00,468.99 C295.23,469.00 301.30,469.52 303.50,470.13 C305.70,470.75 314.02,471.55 322.00,471.91 C336.89,472.58 546.50,472.16 548.75,471.46 C551.08,470.72 550.02,469.42 545.75,467.78 L 541.50 466.15 L 547.19 466.07 C553.12,466.00 555.60,464.66 551.74,463.63 C551.68,463.61 551.50,463.59 551.22,463.58 C555.73,463.70 557.91,463.85 558.02,464.04 C558.40,464.64 559.33,465.24 560.10,465.37 C564.52,466.11 570.25,470.58 581.82,482.33 C596.85,497.60 601.63,503.00 600.14,503.00 C599.55,503.00 597.56,501.54 595.72,499.75 ZM 338.00 719.24 C338.00,718.82 342.84,713.60 348.75,707.63 C354.66,701.66 366.24,689.97 374.49,681.64 C386.73,669.27 400.06,655.81 412.53,643.23 C384.87,671.17 354.00,703.01 354.00,704.10 C354.00,706.65 357.49,703.87 368.45,692.56 C392.73,667.50 402.80,657.44 406.21,654.83 C408.13,653.36 410.46,650.55 411.40,648.58 C412.33,646.61 413.70,645.00 414.45,645.00 C415.71,645.00 423.57,637.80 444.75,617.24 C455.17,607.12 464.42,600.86 473.02,598.08 C474.72,597.53 477.18,597.05 480.62,596.61 C480.08,596.73 479.75,596.85 479.64,596.96 C479.07,597.53 477.90,598.00 477.05,598.00 C474.37,598.00 462.75,603.97 458.02,607.76 C455.54,609.76 450.55,614.35 446.95,617.95 C418.03,646.89 362.54,701.02 349.69,712.82 C342.91,719.06 338.00,721.75 338.00,719.24 ZM 534.50 467.22 C533.03,468.08 509.30,468.43 444.50,468.54 C348.75,468.71 331.59,468.47 332.52,466.97 C332.90,466.35 370.24,466.01 434.81,466.03 C512.56,466.05 536.03,466.33 534.50,467.22 ZM 385.00 733.03 C383.15,734.26 414.77,733.68 423.10,732.33 C429.17,731.35 434.37,728.58 433.72,726.69 C433.25,725.34 415.62,725.42 372.71,726.94 C349.30,727.77 346.61,728.05 343.71,729.91 L 340.50 731.97 L 352.00 731.97 C359.01,731.97 365.65,731.40 369.00,730.50 C376.89,728.38 414.77,728.36 417.56,730.47 C419.29,731.78 417.73,731.94 403.00,731.98 C393.79,732.01 385.84,732.47 385.00,733.03 ZM 562.00 604.66 C562.00,606.00 562.85,606.15 567.25,605.63 C570.14,605.29 592.75,604.72 617.50,604.37 C658.64,603.80 666.00,603.32 666.00,601.21 C666.00,600.10 565.96,600.95 563.84,602.09 C562.83,602.63 562.00,603.79 562.00,604.66 ZM 681.00 578.54 C681.00,581.18 678.19,584.50 674.17,587.24 C675.44,586.22 676.42,585.09 677.05,583.90 C679.06,580.15 676.87,580.11 671.21,583.79 L 665.50 587.50 L 570.87 587.25 C487.87,587.04 476.09,587.19 475.00,588.50 C473.95,589.77 474.16,590.00 476.38,590.00 C480.23,590.00 479.57,591.51 475.13,592.84 C470.36,594.27 465.66,594.36 466.50,593.00 C466.84,592.45 466.53,592.01 465.81,592.03 C464.28,592.07 460.02,595.44 459.95,596.66 C459.92,597.12 457.49,599.47 454.55,601.88 C450.93,604.83 435.02,620.57 416.88,638.84 C440.46,615.06 459.99,595.38 461.54,593.85 C463.03,592.39 466.68,589.97 469.66,588.46 L 475.08 585.72 L 566.26 586.20 C631.54,586.54 659.30,586.36 663.97,585.55 C669.32,584.62 671.20,583.75 674.39,580.71 C678.49,576.80 681.00,575.97 681.00,578.54 ZM 678.00 536.81 C675.53,535.67 672.60,534.26 671.50,533.66 C670.35,533.04 660.58,532.35 648.50,532.04 C629.71,531.56 627.13,531.28 624.00,529.45 C622.08,528.32 619.87,526.07 619.10,524.45 C618.33,522.83 616.50,520.38 615.04,519.00 C613.57,517.62 611.06,514.70 609.46,512.50 C606.94,509.03 606.86,508.76 608.92,510.50 C610.22,511.60 612.79,513.95 614.64,515.73 C619.86,520.75 629.85,525.00 636.46,525.00 C639.51,525.00 642.00,525.34 642.00,525.75 C642.00,526.16 647.59,526.62 654.41,526.76 C656.49,526.81 658.42,526.88 660.16,526.98 C657.24,526.85 653.54,526.77 648.80,526.73 C639.07,526.64 630.81,526.85 630.45,527.21 C628.39,529.27 632.16,530.01 645.31,530.12 C653.11,530.18 660.85,530.58 662.50,531.00 C666.92,532.12 672.79,532.14 673.48,531.03 C673.81,530.50 672.41,529.37 670.36,528.50 C672.23,529.28 674.03,529.63 674.37,529.29 C674.72,528.95 675.00,529.19 675.00,529.83 C675.00,530.47 675.52,531.00 676.16,531.00 C678.04,531.00 684.00,535.98 684.00,537.55 C684.00,539.39 683.48,539.33 678.00,536.81 ZM 355.65 543.95 C354.92,544.68 365.95,544.96 392.55,544.86 C414.21,544.78 428.14,544.40 425.00,543.97 C416.04,542.75 356.87,542.73 355.65,543.95 ZM 690.86 581.52 C690.40,581.07 691.06,574.29 692.75,562.00 C693.28,558.11 693.94,556.50 695.00,556.50 C696.29,556.50 697.30,561.20 697.45,566.13 C697.28,565.88 697.07,565.64 696.80,565.37 C695.44,564.01 695.11,564.28 693.64,567.94 C691.90,572.30 691.56,575.23 692.69,576.35 C694.07,577.73 695.32,576.30 696.81,571.65 C697.04,570.91 697.24,570.27 697.39,569.73 C697.33,570.78 697.21,571.80 697.04,572.72 C695.94,578.73 692.69,583.35 690.86,581.52 ZM 388.50 540.94 C383.10,539.82 353.89,539.88 356.50,541.00 C357.60,541.47 366.15,541.84 375.50,541.81 C387.13,541.78 391.24,541.51 388.50,540.94 ZM 457.66 539.96 C468.67,540.96 471.24,540.83 471.76,539.25 C472.07,538.30 469.27,538.00 459.92,538.00 C453.18,538.00 447.93,538.26 448.24,538.58 C448.56,538.89 452.80,539.52 457.66,539.96 ZM 675.63 551.50 C673.27,549.21 670.73,547.24 669.16,546.42 C670.26,546.85 671.72,547.63 673.00,548.50 C678.21,552.05 679.09,551.70 676.84,546.95 C676.44,546.09 675.24,544.95 673.70,543.88 C677.13,545.93 678.78,548.00 681.02,552.21 C684.61,558.94 683.11,558.75 675.63,551.50 ZM 321.83 521.25 C324.01,523.62 325.32,523.47 324.00,521.00 C323.41,519.90 322.50,519.00 321.96,519.00 C321.43,519.00 321.00,518.33 321.00,517.50 C321.00,516.67 320.30,516.00 319.44,516.00 C318.58,516.00 318.10,515.64 318.38,515.20 C319.31,513.68 317.26,511.83 315.01,512.16 C312.87,512.48 312.95,512.68 316.48,516.00 C318.53,517.92 320.94,520.29 321.83,521.25 ZM 305.75 504.65 C308.10,507.01 308.54,507.15 308.83,505.65 C309.32,503.12 306.31,498.94 304.50,499.64 C302.36,500.46 302.63,501.53 305.75,504.65 ZM 298.20 495.80 C299.49,497.09 302.00,497.44 302.00,496.33 C302.00,495.32 298.81,492.00 297.85,492.00 C296.59,492.00 296.82,494.42 298.20,495.80 ZM 580.00 493.50 C578.71,492.13 577.96,490.70 578.33,490.33 C579.06,489.60 584.00,493.82 584.00,495.17 C584.00,496.70 582.37,496.02 580.00,493.50 ZM 447.00 709.74 C447.00,708.48 450.86,705.53 451.57,706.24 C452.17,706.84 448.99,711.00 447.94,711.00 C447.42,711.00 447.00,710.43 447.00,709.74 ZM 497.27 595.30 C516.00,594.32 546.58,593.76 595.50,593.36 C648.25,592.92 661.46,592.55 665.67,591.36 C665.12,591.54 664.56,591.69 664.00,591.83 C661.09,592.54 636.71,593.10 595.00,593.41 C550.59,593.74 516.52,594.42 497.27,595.30 ZM 291.43 487.57 C292.49,488.35 293.61,488.72 293.93,488.41 C294.24,488.09 293.63,487.20 292.57,486.43 C291.51,485.65 290.39,485.28 290.07,485.59 C289.76,485.91 290.37,486.80 291.43,487.57 ZM 593.07 505.59 C591.49,503.68 591.96,502.74 593.90,503.94 C594.64,504.40 595.06,505.32 594.84,505.99 C594.54,506.87 594.04,506.75 593.07,505.59 Z" fill="rgb(83,83,83)"/>
<path d="M 451.75 607.41 C451.06,607.72 451.59,607.71 452.91,607.37 C454.24,607.04 457.39,605.30 459.91,603.51 C462.44,601.73 465.62,600.02 467.00,599.73 C468.40,599.42 470.00,599.02 471.62,598.56 C463.41,601.55 454.60,607.67 444.75,617.24 C423.57,637.80 415.71,645.00 414.45,645.00 C413.70,645.00 412.33,646.61 411.40,648.58 C410.46,650.55 408.13,653.36 406.21,654.83 C402.80,657.44 392.73,667.50 368.45,692.56 C357.49,703.87 354.00,706.65 354.00,704.10 C354.00,703.01 384.85,671.19 412.51,643.25 L 412.53 643.23 L 416.88 638.84 L 416.89 638.84 C435.02,620.56 450.93,604.83 454.55,601.88 C457.49,599.47 459.92,597.12 459.95,596.66 C460.02,595.44 464.28,592.07 465.81,592.03 C466.53,592.01 466.84,592.45 466.50,593.00 C465.66,594.36 470.36,594.27 475.13,592.84 C479.57,591.51 480.23,590.00 476.38,590.00 C474.16,590.00 473.95,589.77 475.00,588.50 C476.09,587.19 487.87,587.04 570.87,587.25 L 664.28 587.50 C662.39,588.52 661.00,589.39 661.00,589.68 C661.00,589.98 663.09,589.91 665.65,589.53 C671.83,588.60 679.44,583.00 674.53,583.00 C673.90,583.00 671.84,583.82 669.51,584.89 L 671.21 583.79 C676.87,580.11 679.06,580.15 677.05,583.90 C676.42,585.09 675.44,586.22 674.17,587.24 C671.67,588.94 668.71,590.42 665.67,591.36 C661.46,592.55 648.25,592.92 595.50,593.36 C546.58,593.76 516.00,594.32 497.27,595.30 C488.52,595.70 482.83,596.14 480.62,596.61 C478.37,596.90 476.53,597.20 475.06,597.53 C478.65,596.40 481.65,595.24 481.83,594.81 C482.02,594.36 484.27,593.99 486.83,593.98 C491.85,593.97 493.59,593.25 493.53,591.21 C493.48,589.14 490.83,588.03 485.86,588.02 C482.21,588.00 481.25,588.34 481.36,589.60 C481.46,590.77 479.68,591.68 474.74,592.98 C471.03,593.96 467.32,595.32 466.50,596.00 C465.68,596.68 464.02,596.98 462.81,596.66 C461.12,596.22 459.75,597.05 456.82,600.29 C454.74,602.61 453.02,605.03 453.01,605.67 C453.01,606.31 452.44,607.09 451.75,607.41 ZM 331.50 471.89 C332.18,471.99 334.75,472.07 338.83,472.13 C330.09,472.08 324.10,472.00 322.00,471.91 C314.02,471.55 305.70,470.75 303.50,470.13 C301.30,469.52 295.23,469.00 290.00,468.99 C280.31,468.97 276.59,468.01 278.57,466.03 C279.89,464.71 308.34,463.80 360.20,463.35 C376.19,463.30 395.09,463.26 417.42,463.22 C494.93,463.06 536.13,463.16 551.22,463.58 C551.50,463.59 551.68,463.61 551.74,463.63 C555.60,464.66 553.12,466.00 547.19,466.07 L 541.50 466.15 L 545.75 467.78 C547.12,468.31 548.16,468.80 548.86,469.25 C535.18,468.74 344.58,468.46 317.69,468.93 C311.60,469.04 314.42,470.99 320.81,471.09 C323.94,471.14 328.75,471.50 331.50,471.89 ZM 669.00 541.48 C670.90,542.35 672.42,543.12 673.70,543.88 C675.24,544.95 676.44,546.09 676.84,546.95 C679.09,551.70 678.21,552.05 673.00,548.50 C671.72,547.63 670.26,546.85 669.16,546.42 C668.65,546.15 668.24,546.00 667.98,546.00 C666.89,546.00 666.00,545.49 666.00,544.87 C666.00,544.81 665.91,544.75 665.71,544.70 C664.71,543.75 645.26,543.36 577.92,542.89 C529.84,542.56 487.70,541.94 484.27,541.51 C480.84,541.09 477.52,540.13 476.89,539.37 C475.58,537.79 517.66,537.65 612.00,538.93 L 664.99 539.64 ZM 534.50 467.22 C536.03,466.33 512.56,466.05 434.81,466.03 C370.24,466.01 332.90,466.35 332.52,466.97 C331.59,468.47 348.75,468.71 444.50,468.54 C509.30,468.43 533.03,468.08 534.50,467.22 ZM 562.00 604.66 C562.00,603.79 562.83,602.63 563.84,602.09 C565.96,600.95 666.00,600.10 666.00,601.21 C666.00,603.32 658.64,603.80 617.50,604.37 C592.75,604.72 570.14,605.29 567.25,605.63 C562.85,606.15 562.00,606.00 562.00,604.66 ZM 385.00 733.03 C385.84,732.47 393.79,732.01 403.00,731.98 C417.73,731.94 419.29,731.78 417.56,730.47 C414.77,728.36 376.89,728.38 369.00,730.50 C365.65,731.40 359.01,731.97 352.00,731.97 L 340.50 731.97 L 343.71 729.91 C346.61,728.05 349.30,727.77 372.71,726.94 C415.62,725.42 433.25,725.34 433.72,726.69 C434.16,727.98 431.88,729.68 428.46,730.94 C428.80,730.70 429.13,730.40 429.44,730.06 C431.97,727.27 430.58,726.00 425.00,726.00 C419.27,726.00 417.75,727.57 420.95,730.16 C422.33,731.28 423.80,731.86 425.21,731.91 C424.52,732.08 423.82,732.22 423.10,732.33 C414.77,733.68 383.15,734.26 385.00,733.03 ZM 347.00 542.20 C347.00,541.81 345.86,541.08 344.37,540.46 C343.92,540.20 343.46,539.94 343.00,539.70 C341.95,539.16 340.66,538.48 339.49,537.84 C338.65,537.25 337.84,536.62 337.19,536.03 C335.37,534.36 333.68,533.00 333.44,533.00 C332.57,533.00 329.00,528.98 329.00,528.00 C329.00,526.26 330.24,526.91 333.17,530.19 C335.31,532.59 336.30,533.10 337.17,532.23 C338.03,531.37 337.41,530.08 334.66,527.04 C332.65,524.82 331.00,522.75 331.00,522.46 C331.00,521.56 334.32,523.76 338.00,527.10 C343.78,532.34 351.27,535.10 362.39,536.07 C367.82,536.55 372.45,537.11 372.66,537.33 C373.69,538.36 359.79,538.87 354.50,538.00 C346.58,536.69 345.96,536.73 346.64,538.50 C346.95,539.33 347.95,540.02 348.86,540.04 C349.76,540.05 351.62,540.71 353.00,541.50 C355.46,542.91 355.44,542.93 351.25,542.96 C348.91,542.98 347.00,542.64 347.00,542.20 ZM 631.00 542.95 C648.88,543.32 664.29,543.71 665.25,543.81 C667.81,544.09 667.39,542.10 664.66,541.06 C661.91,540.02 593.44,540.22 592.39,541.28 C592.37,541.30 592.35,541.32 592.33,541.34 C592.22,541.44 592.12,541.54 592.13,541.62 C592.19,542.16 596.72,542.24 631.00,542.95 ZM 577.53 590.05 C577.82,590.51 592.55,590.86 610.28,590.82 C630.61,590.77 641.61,590.41 640.08,589.84 C638.76,589.35 635.83,589.00 633.58,589.07 C631.34,589.15 618.32,588.97 604.65,588.67 C580.31,588.15 576.48,588.35 577.53,590.05 ZM 355.65 543.95 C356.87,542.73 416.04,542.75 425.00,543.97 C428.14,544.40 414.21,544.78 392.55,544.86 C365.95,544.96 354.92,544.68 355.65,543.95 ZM 457.66 539.96 C452.80,539.52 448.56,538.89 448.24,538.58 C447.93,538.26 453.18,538.00 459.92,538.00 C469.27,538.00 472.07,538.30 471.76,539.25 C471.24,540.83 468.67,540.96 457.66,539.96 ZM 697.45 566.12 C697.48,567.33 697.47,568.56 697.39,569.73 C697.24,570.27 697.04,570.91 696.81,571.65 C695.32,576.30 694.07,577.73 692.69,576.35 C691.56,575.23 691.90,572.30 693.64,567.94 C695.11,564.28 695.44,564.01 696.80,565.37 C697.07,565.64 697.28,565.88 697.45,566.12 ZM 321.83 521.25 C320.94,520.29 318.53,517.92 316.48,516.00 C312.95,512.68 312.87,512.48 315.01,512.16 C317.26,511.83 319.31,513.68 318.38,515.20 C318.10,515.64 318.58,516.00 319.44,516.00 C320.30,516.00 321.00,516.67 321.00,517.50 C321.00,518.33 321.43,519.00 321.96,519.00 C322.50,519.00 323.41,519.90 324.00,521.00 C325.32,523.47 324.01,523.62 321.83,521.25 ZM 281.57 467.11 C282.21,468.14 287.37,468.28 291.86,467.38 C296.16,466.52 294.77,465.00 289.69,465.01 C284.44,465.03 280.86,465.96 281.57,467.11 ZM 350.61 730.56 C350.20,731.64 350.88,731.98 353.28,731.93 C355.05,731.89 357.33,731.53 358.35,731.13 C360.00,730.48 360.03,730.27 358.64,729.11 C356.74,727.54 351.41,728.50 350.61,730.56 ZM 305.75 504.65 C302.63,501.53 302.36,500.46 304.50,499.64 C306.31,498.94 309.32,503.12 308.83,505.65 C308.54,507.15 308.10,507.01 305.75,504.65 ZM 431.88 472.22 C488.80,471.99 548.83,471.46 549.43,470.90 C549.66,470.69 549.81,470.42 549.86,470.16 C550.15,470.69 549.78,471.13 548.75,471.46 C547.57,471.83 489.20,472.12 431.88,472.22 ZM 341.65 534.17 C343.17,535.85 348.00,536.79 348.00,535.41 C348.00,534.24 343.46,531.07 341.75,531.03 C339.56,530.99 339.54,531.83 341.65,534.17 ZM 298.20 495.80 C296.82,494.42 296.59,492.00 297.85,492.00 C298.81,492.00 302.00,495.32 302.00,496.33 C302.00,497.44 299.49,497.09 298.20,495.80 ZM 670.40 545.83 C672.63,548.36 674.00,548.62 674.00,546.50 C674.00,545.67 673.59,545.00 673.08,545.00 C672.58,545.00 671.34,544.70 670.33,544.33 C668.60,543.70 668.61,543.78 670.40,545.83 ZM 892.57 1043.69 C888.62,1040.86 883.35,1038.00 881.63,1038.00 C878.52,1038.00 880.02,1036.43 884.35,1035.15 C888.30,1033.99 892.75,1030.77 896.30,1026.94 C893.18,1030.34 889.36,1033.27 885.84,1034.68 C883.73,1035.53 882.00,1036.51 882.00,1036.86 C882.00,1037.21 884.14,1038.63 886.75,1040.00 C888.93,1041.15 890.86,1042.37 892.57,1043.69 ZM 291.43 487.57 C290.37,486.80 289.76,485.91 290.07,485.59 C290.39,485.28 291.51,485.65 292.57,486.43 C293.63,487.20 294.24,488.09 293.93,488.41 C293.61,488.72 292.49,488.35 291.43,487.57 ZM 923.14 1034.73 C923.35,1034.82 923.55,1034.89 923.75,1034.96 C926.09,1035.71 928.00,1036.64 928.00,1037.02 C928.00,1037.39 926.20,1038.39 923.93,1039.28 C926.67,1037.97 926.42,1036.57 923.14,1034.73 ZM 910.14 1023.92 C913.29,1027.68 917.79,1031.73 921.31,1033.80 C917.93,1032.16 913.37,1027.97 910.14,1023.92 ZM 922.48 1039.87 C919.35,1041.27 916.27,1043.49 913.58,1046.19 C916.42,1043.27 919.61,1040.94 922.48,1039.87 ZM 901.57 1055.36 C900.84,1053.76 899.88,1052.00 898.91,1050.44 C899.87,1051.88 900.71,1053.43 901.47,1055.12 L 902.31 1056.98 ZM 905.70 1016.02 C905.21,1015.04 904.71,1014.48 904.24,1014.37 C904.72,1014.47 905.23,1015.02 905.70,1016.02 Z" fill="rgb(117,117,117)"/>
<path d="M 901.47 1055.12 C898.44,1048.37 894.02,1043.82 886.75,1040.00 C884.14,1038.63 882.00,1037.21 882.00,1036.86 C882.00,1036.51 883.73,1035.53 885.84,1034.68 C892.82,1031.89 900.93,1023.13 902.56,1016.61 C903.42,1013.17 905.05,1013.71 906.46,1017.89 C908.09,1022.73 916.24,1031.42 921.44,1033.87 C926.87,1036.42 927.21,1038.16 922.61,1039.82 C917.10,1041.82 910.34,1048.53 907.14,1055.19 L 904.23 1061.26 L 901.47 1055.12 ZM 350.61 730.56 C351.41,728.50 356.74,727.54 358.64,729.11 C360.03,730.27 360.00,730.48 358.35,731.13 C357.33,731.53 355.05,731.89 353.28,731.93 C350.88,731.98 350.20,731.64 350.61,730.56 ZM 420.95 730.16 C417.75,727.57 419.27,726.00 425.00,726.00 C430.58,726.00 431.97,727.27 429.44,730.06 C427.24,732.50 423.89,732.54 420.95,730.16 ZM 451.75 607.41 C452.44,607.09 453.01,606.31 453.01,605.67 C453.02,605.03 454.74,602.61 456.82,600.29 C459.75,597.05 461.12,596.22 462.81,596.66 C464.02,596.98 465.68,596.68 466.50,596.00 C467.32,595.32 471.03,593.96 474.74,592.98 C479.68,591.68 481.46,590.77 481.36,589.60 C481.25,588.34 482.21,588.00 485.86,588.02 C490.83,588.03 493.48,589.14 493.53,591.21 C493.59,593.25 491.85,593.97 486.83,593.98 C484.27,593.99 482.02,594.36 481.83,594.81 C481.52,595.57 472.64,598.51 467.00,599.73 C465.62,600.02 462.44,601.73 459.91,603.51 C457.39,605.30 454.24,607.04 452.91,607.37 C451.59,607.71 451.06,607.72 451.75,607.41 ZM 577.53 590.05 C576.48,588.35 580.31,588.15 604.65,588.67 C618.32,588.97 631.34,589.15 633.58,589.07 C635.83,589.00 638.76,589.35 640.08,589.84 C641.61,590.41 630.61,590.77 610.28,590.82 C592.55,590.86 577.82,590.51 577.53,590.05 ZM 661.00 589.68 C661.00,588.85 672.85,583.00 674.53,583.00 C679.44,583.00 671.83,588.60 665.65,589.53 C663.09,589.91 661.00,589.98 661.00,589.68 ZM 670.40 545.83 C668.61,543.78 668.60,543.70 670.33,544.33 C671.34,544.70 672.58,545.00 673.08,545.00 C673.59,545.00 674.00,545.67 674.00,546.50 C674.00,548.62 672.63,548.36 670.40,545.83 ZM 631.00 542.95 C590.63,542.11 591.52,542.15 592.39,541.28 C593.44,540.22 661.91,540.02 664.66,541.06 C667.39,542.10 667.81,544.09 665.25,543.81 C664.29,543.71 648.88,543.32 631.00,542.95 ZM 341.65 534.17 C339.54,531.83 339.56,530.99 341.75,531.03 C343.46,531.07 348.00,534.24 348.00,535.41 C348.00,536.79 343.17,535.85 341.65,534.17 ZM 662.50 531.00 C660.85,530.58 653.11,530.18 645.31,530.12 C632.16,530.01 628.39,529.27 630.45,527.21 C630.81,526.85 639.07,526.64 648.80,526.73 C662.40,526.85 667.38,527.26 670.29,528.48 C672.38,529.35 673.81,530.50 673.48,531.03 C672.79,532.14 666.92,532.12 662.50,531.00 ZM 331.50 471.89 C328.75,471.50 323.94,471.14 320.81,471.09 C314.42,470.99 311.60,469.04 317.69,468.93 C345.55,468.44 549.10,468.77 549.64,469.30 C550.04,469.70 549.95,470.42 549.43,470.90 C548.30,471.95 338.58,472.90 331.50,471.89 ZM 281.57 467.11 C280.86,465.96 284.44,465.03 289.69,465.01 C294.77,465.00 296.16,466.52 291.86,467.38 C287.37,468.28 282.21,468.14 281.57,467.11 Z" fill="rgb(144,144,144)"/>
</g>
</svg>